{
    "asset" : {
        "generator" : "Khronos glTF Blender I/O v1.2.75",
        "version" : "2.0"
    },
    "scene" : 0,
    "scenes" : [
        {
            "name" : "Scene",
            "nodes" : [
                0,
                1,
                2
            ]
        }
    ],
    "nodes" : [
        {
            "mesh" : 0,
            "name" : "Giftbox06",
            "scale" : [
                0.10786360502243042,
                0.10786359012126923,
                0.10786359012126923
            ],
            "translation" : [
                0.002509787678718567,
                1.15746009349823,
                0.007474570535123348
            ]
        },
        {
            "name" : "Light",
            "rotation" : [
                0.16907575726509094,
                0.7558803558349609,
                -0.27217137813568115,
                0.570947527885437
            ],
            "translation" : [
                4.076245307922363,
                5.903861999511719,
                -1.0054539442062378
            ]
        },
        {
            "name" : "Camera",
            "rotation" : [
                0.483536034822464,
                0.33687159419059753,
                -0.20870360732078552,
                0.7804827094078064
            ],
            "translation" : [
                7.358891487121582,
                4.958309173583984,
                6.925790786743164
            ]
        }
    ],
    "materials" : [
        {
            "doubleSided" : true,
            "emissiveFactor" : [
                0,
                0,
                0
            ],
            "name" : "Yellow01",
            "pbrMetallicRoughness" : {
                "baseColorFactor" : [
                    0.7873992919921875,
                    0.4332678020000458,
                    0.12183460593223572,
                    1
                ],
                "metallicFactor" : 0.20000000298023224,
                "roughnessFactor" : 0.5
            }
        },
        {
            "doubleSided" : true,
            "emissiveFactor" : [
                0,
                0,
                0
            ],
            "name" : "Pink01",
            "pbrMetallicRoughness" : {
                "baseColorFactor" : [
                    0.8000000715255737,
                    0.3292648494243622,
                    0.508145272731781,
                    1
                ],
                "metallicFactor" : 0,
                "roughnessFactor" : 0.5
            }
        },
        {
            "doubleSided" : true,
            "emissiveFactor" : [
                0,
                0,
                0
            ],
            "name" : "Pink02",
            "pbrMetallicRoughness" : {
                "baseColorFactor" : [
                    0.6938718557357788,
                    0.1356775015592575,
                    0.2985050678253174,
                    1
                ],
                "metallicFactor" : 0,
                "roughnessFactor" : 0.6000000238418579
            }
        },
        {
            "doubleSided" : true,
            "emissiveFactor" : [
                0,
                0,
                0
            ],
            "name" : "Pink03",
            "pbrMetallicRoughness" : {
                "baseColorFactor" : [
                    0.8000000715255737,
                    0.20082345604896545,
                    0.6774466633796692,
                    1
                ],
                "metallicFactor" : 0,
                "roughnessFactor" : 0.5
            }
        }
    ],
    "meshes" : [
        {
            "name" : "Sphere",
            "primitives" : [
                {
                    "attributes" : {
                        "POSITION" : 0,
                        "NORMAL" : 1,
                        "TEXCOORD_0" : 2
                    },
                    "indices" : 3,
                    "material" : 0
                },
                {
                    "attributes" : {
                        "POSITION" : 4,
                        "NORMAL" : 5,
                        "TEXCOORD_0" : 6
                    },
                    "indices" : 7,
                    "material" : 1
                },
                {
                    "attributes" : {
                        "POSITION" : 8,
                        "NORMAL" : 9,
                        "TEXCOORD_0" : 10
                    },
                    "indices" : 11,
                    "material" : 2
                },
                {
                    "attributes" : {
                        "POSITION" : 12,
                        "NORMAL" : 13,
                        "TEXCOORD_0" : 14
                    },
                    "indices" : 15,
                    "material" : 3
                }
            ]
        }
    ],
    "accessors" : [
        {
            "bufferView" : 0,
            "componentType" : 5126,
            "count" : 559,
            "max" : [
                0.9999997019767761,
                1,
                0.9999994039535522
            ],
            "min" : [
                -0.9999990463256836,
                -1,
                -0.9999987483024597
            ],
            "type" : "VEC3"
        },
        {
            "bufferView" : 1,
            "componentType" : 5126,
            "count" : 559,
            "type" : "VEC3"
        },
        {
            "bufferView" : 2,
            "componentType" : 5126,
            "count" : 559,
            "type" : "VEC2"
        },
        {
            "bufferView" : 3,
            "componentType" : 5123,
            "count" : 2880,
            "type" : "SCALAR"
        },
        {
            "bufferView" : 4,
            "componentType" : 5126,
            "count" : 1456,
            "max" : [
                6.434399604797363,
                1.7030413150787354,
                6.39911413192749
            ],
            "min" : [
                -6.452883720397949,
                -13.816191673278809,
                -6.488169193267822
            ],
            "type" : "VEC3"
        },
        {
            "bufferView" : 5,
            "componentType" : 5126,
            "count" : 1456,
            "type" : "VEC3"
        },
        {
            "bufferView" : 6,
            "componentType" : 5126,
            "count" : 1456,
            "type" : "VEC2"
        },
        {
            "bufferView" : 7,
            "componentType" : 5123,
            "count" : 6816,
            "type" : "SCALAR"
        },
        {
            "bufferView" : 8,
            "componentType" : 5126,
            "count" : 2878,
            "max" : [
                6.759190082550049,
                1.4728384017944336,
                6.723904609680176
            ],
            "min" : [
                -6.777673244476318,
                -14.138057708740234,
                -6.812958717346191
            ],
            "type" : "VEC3"
        },
        {
            "bufferView" : 9,
            "componentType" : 5126,
            "count" : 2878,
            "type" : "VEC3"
        },
        {
            "bufferView" : 10,
            "componentType" : 5126,
            "count" : 2878,
            "type" : "VEC2"
        },
        {
            "bufferView" : 11,
            "componentType" : 5123,
            "count" : 11520,
            "type" : "SCALAR"
        },
        {
            "bufferView" : 12,
            "componentType" : 5126,
            "count" : 3208,
            "max" : [
                4.7084431648254395,
                -0.8902729153633118,
                4.623870372772217
            ],
            "min" : [
                -4.628353595733643,
                -1.1920613050460815,
                -4.712925434112549
            ],
            "type" : "VEC3"
        },
        {
            "bufferView" : 13,
            "componentType" : 5126,
            "count" : 3208,
            "type" : "VEC3"
        },
        {
            "bufferView" : 14,
            "componentType" : 5126,
            "count" : 3208,
            "type" : "VEC2"
        },
        {
            "bufferView" : 15,
            "componentType" : 5123,
            "count" : 17664,
            "type" : "SCALAR"
        }
    ],
    "bufferViews" : [
        {
            "buffer" : 0,
            "byteLength" : 6708,
            "byteOffset" : 0
        },
        {
            "buffer" : 0,
            "byteLength" : 6708,
            "byteOffset" : 6708
        },
        {
            "buffer" : 0,
            "byteLength" : 4472,
            "byteOffset" : 13416
        },
        {
            "buffer" : 0,
            "byteLength" : 5760,
            "byteOffset" : 17888
        },
        {
            "buffer" : 0,
            "byteLength" : 17472,
            "byteOffset" : 23648
        },
        {
            "buffer" : 0,
            "byteLength" : 17472,
            "byteOffset" : 41120
        },
        {
            "buffer" : 0,
            "byteLength" : 11648,
            "byteOffset" : 58592
        },
        {
            "buffer" : 0,
            "byteLength" : 13632,
            "byteOffset" : 70240
        },
        {
            "buffer" : 0,
            "byteLength" : 34536,
            "byteOffset" : 83872
        },
        {
            "buffer" : 0,
            "byteLength" : 34536,
            "byteOffset" : 118408
        },
        {
            "buffer" : 0,
            "byteLength" : 23024,
            "byteOffset" : 152944
        },
        {
            "buffer" : 0,
            "byteLength" : 23040,
            "byteOffset" : 175968
        },
        {
            "buffer" : 0,
            "byteLength" : 38496,
            "byteOffset" : 199008
        },
        {
            "buffer" : 0,
            "byteLength" : 38496,
            "byteOffset" : 237504
        },
        {
            "buffer" : 0,
            "byteLength" : 25664,
            "byteOffset" : 276000
        },
        {
            "buffer" : 0,
            "byteLength" : 35328,
            "byteOffset" : 301664
        }
    ],
    "buffers" : [
        {
            "byteLength" : 336992,
            "uri" : "data:application/octet-stream;base64,"
        }
    ]
}
