{
    "asset" : {
        "generator" : "Khronos glTF Blender I/O v1.2.75",
        "version" : "2.0"
    },
    "scene" : 0,
    "scenes" : [
        {
            "name" : "Scene",
            "nodes" : [
                0,
                1,
                2,
                3,
                4
            ]
        }
    ],
    "nodes" : [
        {
            "mesh" : 0,
            "name" : "Can"
        },
        {
            "mesh" : 1,
            "name" : "Can.001"
        },
        {
            "mesh" : 2,
            "name" : "Can.002",
            "scale" : [
                10,
                10,
                10
            ],
            "translation" : [
                0,
                -0.4599999487400055,
                0
            ]
        },
        {
            "name" : "Light",
            "rotation" : [
                0.16907575726509094,
                0.7558803558349609,
                -0.27217137813568115,
                0.570947527885437
            ],
            "translation" : [
                4.076245307922363,
                5.903861999511719,
                -1.0054539442062378
            ]
        },
        {
            "name" : "Camera",
            "rotation" : [
                0.483536034822464,
                0.33687159419059753,
                -0.20870360732078552,
                0.7804827094078064
            ],
            "translation" : [
                7.358891487121582,
                4.958309173583984,
                6.925790786743164
            ]
        }
    ],
    "materials" : [
        {
            "doubleSided" : true,
            "emissiveFactor" : [
                0,
                0,
                0
            ],
            "name" : "Pepsitexture",
            "pbrMetallicRoughness" : {
                "baseColorTexture" : {
                    "index" : 0,
                    "texCoord" : 0
                },
                "metallicFactor" : 1,
                "roughnessFactor" : 1
            }
        },
        {
            "doubleSided" : true,
            "emissiveFactor" : [
                0,
                0,
                0
            ],
            "name" : "metal",
            "pbrMetallicRoughness" : {
                "baseColorFactor" : [
                    0.800000011920929,
                    0.800000011920929,
                    0.800000011920929,
                    1
                ],
                "metallicFactor" : 1,
                "roughnessFactor" : 1
            }
        },
        {
            "doubleSided" : true,
            "emissiveFactor" : [
                0,
                0,
                0
            ],
            "name" : "Pepsitexture.001",
            "pbrMetallicRoughness" : {
                "baseColorTexture" : {
                    "index" : 1,
                    "texCoord" : 0
                },
                "metallicFactor" : 1,
                "roughnessFactor" : 1
            }
        },
        {
            "doubleSided" : true,
            "emissiveFactor" : [
                0,
                0,
                0
            ],
            "name" : "metal.001",
            "pbrMetallicRoughness" : {
                "baseColorFactor" : [
                    0.800000011920929,
                    0.800000011920929,
                    0.800000011920929,
                    1
                ],
                "metallicFactor" : 1,
                "roughnessFactor" : 1
            }
        },
        {
            "doubleSided" : true,
            "emissiveFactor" : [
                0,
                0,
                0
            ],
            "name" : "Pepsitexture.002",
            "pbrMetallicRoughness" : {
                "baseColorTexture" : {
                    "index" : 2,
                    "texCoord" : 0
                },
                "metallicFactor" : 1,
                "roughnessFactor" : 1
            }
        },
        {
            "doubleSided" : true,
            "emissiveFactor" : [
                0,
                0,
                0
            ],
            "name" : "metal.002",
            "pbrMetallicRoughness" : {
                "baseColorFactor" : [
                    0.800000011920929,
                    0.800000011920929,
                    0.800000011920929,
                    1
                ],
                "metallicFactor" : 1,
                "roughnessFactor" : 1
            }
        }
    ],
    "meshes" : [
        {
            "name" : "Can",
            "primitives" : [
                {
                    "attributes" : {
                        "POSITION" : 0,
                        "NORMAL" : 1,
                        "TEXCOORD_0" : 2
                    },
                    "indices" : 3,
                    "material" : 0
                },
                {
                    "attributes" : {
                        "POSITION" : 4,
                        "NORMAL" : 5,
                        "TEXCOORD_0" : 6
                    },
                    "indices" : 7,
                    "material" : 1
                }
            ]
        },
        {
            "name" : "Can.001",
            "primitives" : [
                {
                    "attributes" : {
                        "POSITION" : 8,
                        "NORMAL" : 9,
                        "TEXCOORD_0" : 10
                    },
                    "indices" : 3,
                    "material" : 2
                },
                {
                    "attributes" : {
                        "POSITION" : 11,
                        "NORMAL" : 12,
                        "TEXCOORD_0" : 13
                    },
                    "indices" : 7,
                    "material" : 3
                }
            ]
        },
        {
            "name" : "Can.002",
            "primitives" : [
                {
                    "attributes" : {
                        "POSITION" : 14,
                        "NORMAL" : 15,
                        "TEXCOORD_0" : 16
                    },
                    "indices" : 3,
                    "material" : 4
                },
                {
                    "attributes" : {
                        "POSITION" : 17,
                        "NORMAL" : 18,
                        "TEXCOORD_0" : 19
                    },
                    "indices" : 7,
                    "material" : 5
                }
            ]
        }
    ],
    "textures" : [
        {
            "source" : 0
        },
        {
            "source" : 0
        },
        {
            "source" : 0
        }
    ],
    "images" : [
        {
            "bufferView" : 4,
            "mimeType" : "image/jpeg",
            "name" : "PepsiTexture"
        }
    ],
    "accessors" : [
        {
            "bufferView" : 0,
            "componentType" : 5126,
            "count" : 792,
            "max" : [
                0.03300559148192406,
                0.11973096430301666,
                0.03300559148192406
            ],
            "min" : [
                -0.03300559148192406,
                0.008142733946442604,
                -0.03300558775663376
            ],
            "type" : "VEC3"
        },
        {
            "bufferView" : 1,
            "componentType" : 5126,
            "count" : 792,
            "type" : "VEC3"
        },
        {
            "bufferView" : 2,
            "componentType" : 5126,
            "count" : 792,
            "type" : "VEC2"
        },
        {
            "bufferView" : 3,
            "componentType" : 5123,
            "count" : 4416,
            "type" : "SCALAR"
        },
        {
            "bufferView" : 5,
            "componentType" : 5126,
            "count" : 6580,
            "max" : [
                0.032290268689394,
                0.12266974151134491,
                0.032290268689394
            ],
            "min" : [
                -0.032290268689394,
                2.459826100675855e-05,
                -0.0322902612388134
            ],
            "type" : "VEC3"
        },
        {
            "bufferView" : 6,
            "componentType" : 5126,
            "count" : 6580,
            "type" : "VEC3"
        },
        {
            "bufferView" : 7,
            "componentType" : 5126,
            "count" : 6580,
            "type" : "VEC2"
        },
        {
            "bufferView" : 8,
            "componentType" : 5123,
            "count" : 30204,
            "type" : "SCALAR"
        },
        {
            "bufferView" : 9,
            "componentType" : 5126,
            "count" : 792,
            "max" : [
                0.03300559148192406,
                0.11973096430301666,
                0.03300559148192406
            ],
            "min" : [
                -0.03300559148192406,
                0.008142733946442604,
                -0.03300558775663376
            ],
            "type" : "VEC3"
        },
        {
            "bufferView" : 10,
            "componentType" : 5126,
            "count" : 792,
            "type" : "VEC3"
        },
        {
            "bufferView" : 11,
            "componentType" : 5126,
            "count" : 792,
            "type" : "VEC2"
        },
        {
            "bufferView" : 12,
            "componentType" : 5126,
            "count" : 6580,
            "max" : [
                0.032290268689394,
                0.12266974151134491,
                0.032290268689394
            ],
            "min" : [
                -0.032290268689394,
                2.459826100675855e-05,
                -0.0322902612388134
            ],
            "type" : "VEC3"
        },
        {
            "bufferView" : 13,
            "componentType" : 5126,
            "count" : 6580,
            "type" : "VEC3"
        },
        {
            "bufferView" : 14,
            "componentType" : 5126,
            "count" : 6580,
            "type" : "VEC2"
        },
        {
            "bufferView" : 15,
            "componentType" : 5126,
            "count" : 792,
            "max" : [
                0.03300559148192406,
                0.11973096430301666,
                0.03300559148192406
            ],
            "min" : [
                -0.03300559148192406,
                0.008142733946442604,
                -0.03300558775663376
            ],
            "type" : "VEC3"
        },
        {
            "bufferView" : 16,
            "componentType" : 5126,
            "count" : 792,
            "type" : "VEC3"
        },
        {
            "bufferView" : 17,
            "componentType" : 5126,
            "count" : 792,
            "type" : "VEC2"
        },
        {
            "bufferView" : 18,
            "componentType" : 5126,
            "count" : 6580,
            "max" : [
                0.032290268689394,
                0.12266974151134491,
                0.032290268689394
            ],
            "min" : [
                -0.032290268689394,
                2.459826100675855e-05,
                -0.0322902612388134
            ],
            "type" : "VEC3"
        },
        {
            "bufferView" : 19,
            "componentType" : 5126,
            "count" : 6580,
            "type" : "VEC3"
        },
        {
            "bufferView" : 20,
            "componentType" : 5126,
            "count" : 6580,
            "type" : "VEC2"
        }
    ],
    "bufferViews" : [
        {
            "buffer" : 0,
            "byteLength" : 9504,
            "byteOffset" : 0
        },
        {
            "buffer" : 0,
            "byteLength" : 9504,
            "byteOffset" : 9504
        },
        {
            "buffer" : 0,
            "byteLength" : 6336,
            "byteOffset" : 19008
        },
        {
            "buffer" : 0,
            "byteLength" : 8832,
            "byteOffset" : 25344
        },
        {
            "buffer" : 0,
            "byteLength" : 343433,
            "byteOffset" : 34176
        },
        {
            "buffer" : 0,
            "byteLength" : 78960,
            "byteOffset" : 377612
        },
        {
            "buffer" : 0,
            "byteLength" : 78960,
            "byteOffset" : 456572
        },
        {
            "buffer" : 0,
            "byteLength" : 52640,
            "byteOffset" : 535532
        },
        {
            "buffer" : 0,
            "byteLength" : 60408,
            "byteOffset" : 588172
        },
        {
            "buffer" : 0,
            "byteLength" : 9504,
            "byteOffset" : 648580
        },
        {
            "buffer" : 0,
            "byteLength" : 9504,
            "byteOffset" : 658084
        },
        {
            "buffer" : 0,
            "byteLength" : 6336,
            "byteOffset" : 667588
        },
        {
            "buffer" : 0,
            "byteLength" : 78960,
            "byteOffset" : 673924
        },
        {
            "buffer" : 0,
            "byteLength" : 78960,
            "byteOffset" : 752884
        },
        {
            "buffer" : 0,
            "byteLength" : 52640,
            "byteOffset" : 831844
        },
        {
            "buffer" : 0,
            "byteLength" : 9504,
            "byteOffset" : 884484
        },
        {
            "buffer" : 0,
            "byteLength" : 9504,
            "byteOffset" : 893988
        },
        {
            "buffer" : 0,
            "byteLength" : 6336,
            "byteOffset" : 903492
        },
        {
            "buffer" : 0,
            "byteLength" : 78960,
            "byteOffset" : 909828
        },
        {
            "buffer" : 0,
            "byteLength" : 78960,
            "byteOffset" : 988788
        },
        {
            "buffer" : 0,
            "byteLength" : 52640,
            "byteOffset" : 1067748
        }
    ],
    "buffers" : [
        {
            "byteLength" : 1120388,
            "uri" : "data:application/octet-stream;base64,"
        }
    ]
}
