{
    "asset" : {
        "generator" : "Khronos glTF Blender I/O v1.2.75",
        "version" : "2.0"
    },
    "scene" : 0,
    "scenes" : [
        {
            "name" : "Scene",
            "nodes" : [
                0,
                1,
                2
            ]
        }
    ],
    "nodes" : [
        {
            "mesh" : 0,
            "name" : "Shine Sprite",
            "rotation" : [
                0.7071068286895752,
                0,
                0,
                0.7071068286895752
            ],
            "scale" : [
                0.7000002861022949,
                1.5099995136260986,
                0.7000002861022949
            ],
            "translation" : [
                0,
                0.3999999761581421,
                -0.05999999865889549
            ]
        },
        {
            "name" : "Light",
            "rotation" : [
                0.16907575726509094,
                0.7558803558349609,
                -0.27217137813568115,
                0.570947527885437
            ],
            "translation" : [
                4.076245307922363,
                5.903861999511719,
                -1.0054539442062378
            ]
        },
        {
            "name" : "Camera",
            "rotation" : [
                0.483536034822464,
                0.33687159419059753,
                -0.20870360732078552,
                0.7804827094078064
            ],
            "translation" : [
                7.358891487121582,
                4.958309173583984,
                6.925790786743164
            ]
        }
    ],
    "materials" : [
        {
            "doubleSided" : true,
            "emissiveFactor" : [
                0,
                0,
                0
            ],
            "name" : "Gold",
            "pbrMetallicRoughness" : {
                "baseColorFactor" : [
                    0.6920710206031799,
                    0.522907018661499,
                    0.1364479959011078,
                    1
                ],
                "metallicFactor" : 1,
                "roughnessFactor" : 0.3227272629737854
            }
        },
        {
            "doubleSided" : true,
            "emissiveFactor" : [
                0,
                0,
                0
            ],
            "name" : "Eyes",
            "pbrMetallicRoughness" : {
                "baseColorFactor" : [
                    0.021981000900268555,
                    0.021981000900268555,
                    0.021981000900268555,
                    1
                ],
                "metallicFactor" : 0,
                "roughnessFactor" : 0.3227272629737854
            }
        }
    ],
    "meshes" : [
        {
            "name" : "Torus.002",
            "primitives" : [
                {
                    "attributes" : {
                        "POSITION" : 0,
                        "NORMAL" : 1
                    },
                    "indices" : 2,
                    "material" : 0
                },
                {
                    "attributes" : {
                        "POSITION" : 3,
                        "NORMAL" : 4
                    },
                    "indices" : 5,
                    "material" : 1
                }
            ]
        }
    ],
    "accessors" : [
        {
            "bufferView" : 0,
            "componentType" : 5126,
            "count" : 12757,
            "max" : [
                1.5031193494796753,
                0.25596821308135986,
                1.5031194686889648
            ],
            "min" : [
                -1.5031194686889648,
                -0.25596821308135986,
                -1.899100422859192
            ],
            "type" : "VEC3"
        },
        {
            "bufferView" : 1,
            "componentType" : 5126,
            "count" : 12757,
            "type" : "VEC3"
        },
        {
            "bufferView" : 2,
            "componentType" : 5123,
            "count" : 72864,
            "type" : "SCALAR"
        },
        {
            "bufferView" : 3,
            "componentType" : 5126,
            "count" : 1986,
            "max" : [
                0.4662502706050873,
                0.2869795262813568,
                0.24798907339572906
            ],
            "min" : [
                -0.4662502706050873,
                0.1849108785390854,
                -0.531711995601654
            ],
            "type" : "VEC3"
        },
        {
            "bufferView" : 4,
            "componentType" : 5126,
            "count" : 1986,
            "type" : "VEC3"
        },
        {
            "bufferView" : 5,
            "componentType" : 5123,
            "count" : 11520,
            "type" : "SCALAR"
        }
    ],
    "bufferViews" : [
        {
            "buffer" : 0,
            "byteLength" : 153084,
            "byteOffset" : 0
        },
        {
            "buffer" : 0,
            "byteLength" : 153084,
            "byteOffset" : 153084
        },
        {
            "buffer" : 0,
            "byteLength" : 145728,
            "byteOffset" : 306168
        },
        {
            "buffer" : 0,
            "byteLength" : 23832,
            "byteOffset" : 451896
        },
        {
            "buffer" : 0,
            "byteLength" : 23832,
            "byteOffset" : 475728
        },
        {
            "buffer" : 0,
            "byteLength" : 23040,
            "byteOffset" : 499560
        }
    ],
    "buffers" : [
        {
            "byteLength" : 522600,
            "uri" : "data:application/octet-stream;base64,"
        }
    ]
}
