{
    "asset" : {
        "generator" : "Khronos glTF Blender I/O v1.2.75",
        "version" : "2.0"
    },
    "scene" : 0,
    "scenes" : [
        {
            "name" : "Scene",
            "nodes" : [
                0,
                1,
                2,
                3,
                4,
                5,
                6
            ]
        }
    ],
    "nodes" : [
        {
            "name" : "Light",
            "rotation" : [
                0.16907575726509094,
                0.7558803558349609,
                -0.27217137813568115,
                0.570947527885437
            ],
            "translation" : [
                4.076245307922363,
                5.903861999511719,
                -1.0054539442062378
            ]
        },
        {
            "name" : "Camera",
            "rotation" : [
                0.483536034822464,
                0.33687159419059753,
                -0.20870360732078552,
                0.7804827094078064
            ],
            "translation" : [
                7.358891487121582,
                4.958309173583984,
                6.925790786743164
            ]
        },
        {
            "mesh" : 0,
            "name" : "shita",
            "rotation" : [
                0.7071068286895752,
                0,
                0,
                0.7071067094802856
            ]
        },
        {
            "mesh" : 1,
            "name" : "ue",
            "rotation" : [
                0.7071068286895752,
                0,
                0,
                0.7071067094802856
            ]
        },
        {
            "mesh" : 2,
            "name" : "hidari",
            "rotation" : [
                0.7071068286895752,
                0,
                0,
                0.7071067094802856
            ]
        },
        {
            "mesh" : 3,
            "name" : "Cylinder_Cylinder.001",
            "rotation" : [
                0.7071068286895752,
                0,
                0,
                0.7071067094802856
            ]
        },
        {
            "mesh" : 4,
            "name" : "Plane",
            "rotation" : [
                0.7071068286895752,
                0,
                0,
                0.7071067094802856
            ]
        }
    ],
    "materials" : [
        {
            "doubleSided" : true,
            "name" : "Material.001",
            "pbrMetallicRoughness" : {}
        },
        {
            "doubleSided" : true,
            "emissiveFactor" : [
                0,
                0,
                0
            ],
            "name" : "\u30de\u30c6\u30ea\u30a2\u30eb.001",
            "pbrMetallicRoughness" : {
                "baseColorFactor" : [
                    0.24601015448570251,
                    0.9712756276130676,
                    1,
                    1
                ],
                "metallicFactor" : 0,
                "roughnessFactor" : 0.5
            }
        },
        {
            "doubleSided" : true,
            "name" : "\u30de\u30c6\u30ea\u30a2\u30eb",
            "pbrMetallicRoughness" : {}
        },
        {
            "doubleSided" : true,
            "emissiveFactor" : [
                0,
                0,
                0
            ],
            "name" : "hansha",
            "pbrMetallicRoughness" : {
                "baseColorFactor" : [
                    0.13302405178546906,
                    0.08736085146665573,
                    0.7742780447006226,
                    1
                ],
                "metallicFactor" : 0,
                "roughnessFactor" : 0.5410256385803223
            }
        },
        {
            "doubleSided" : true,
            "name" : "\u30de\u30c6\u30ea\u30a2\u30eb.002",
            "pbrMetallicRoughness" : {}
        }
    ],
    "meshes" : [
        {
            "name" : "shiri",
            "primitives" : [
                {
                    "attributes" : {
                        "POSITION" : 0,
                        "NORMAL" : 1,
                        "TEXCOORD_0" : 2
                    },
                    "indices" : 3,
                    "material" : 0
                },
                {
                    "attributes" : {
                        "POSITION" : 4,
                        "NORMAL" : 5,
                        "TEXCOORD_0" : 6
                    },
                    "indices" : 7,
                    "material" : 1
                }
            ]
        },
        {
            "name" : "hou",
            "primitives" : [
                {
                    "attributes" : {
                        "POSITION" : 8,
                        "NORMAL" : 9,
                        "TEXCOORD_0" : 10
                    },
                    "indices" : 11,
                    "material" : 0
                },
                {
                    "attributes" : {
                        "POSITION" : 12,
                        "NORMAL" : 13,
                        "TEXCOORD_0" : 14
                    },
                    "indices" : 15,
                    "material" : 2
                }
            ]
        },
        {
            "name" : "zzin",
            "primitives" : [
                {
                    "attributes" : {
                        "POSITION" : 16,
                        "NORMAL" : 17,
                        "TEXCOORD_0" : 18
                    },
                    "indices" : 19,
                    "material" : 3
                }
            ]
        },
        {
            "name" : "navi",
            "primitives" : [
                {
                    "attributes" : {
                        "POSITION" : 20,
                        "NORMAL" : 21,
                        "TEXCOORD_0" : 22
                    },
                    "indices" : 23,
                    "material" : 3
                }
            ]
        },
        {
            "name" : "Plane",
            "primitives" : [
                {
                    "attributes" : {
                        "POSITION" : 24,
                        "NORMAL" : 25,
                        "TEXCOORD_0" : 26
                    },
                    "indices" : 27,
                    "material" : 0
                },
                {
                    "attributes" : {
                        "POSITION" : 28,
                        "NORMAL" : 29,
                        "TEXCOORD_0" : 30
                    },
                    "indices" : 31,
                    "material" : 4
                }
            ]
        }
    ],
    "accessors" : [
        {
            "bufferView" : 0,
            "componentType" : 5126,
            "count" : 370,
            "max" : [
                0.28979799151420593,
                0.38322800397872925,
                1.613163948059082
            ],
            "min" : [
                -0.296330988407135,
                -2.3786799907684326,
                -0.9517650008201599
            ],
            "type" : "VEC3"
        },
        {
            "bufferView" : 1,
            "componentType" : 5126,
            "count" : 370,
            "type" : "VEC3"
        },
        {
            "bufferView" : 2,
            "componentType" : 5126,
            "count" : 370,
            "type" : "VEC2"
        },
        {
            "bufferView" : 3,
            "componentType" : 5123,
            "count" : 822,
            "type" : "SCALAR"
        },
        {
            "bufferView" : 4,
            "componentType" : 5126,
            "count" : 4529,
            "max" : [
                0.31153199076652527,
                1.9325809478759766,
                1.613165020942688
            ],
            "min" : [
                -0.31153199076652527,
                -2.4775779247283936,
                -0.9670730233192444
            ],
            "type" : "VEC3"
        },
        {
            "bufferView" : 5,
            "componentType" : 5126,
            "count" : 4529,
            "type" : "VEC3"
        },
        {
            "bufferView" : 6,
            "componentType" : 5126,
            "count" : 4529,
            "type" : "VEC2"
        },
        {
            "bufferView" : 7,
            "componentType" : 5123,
            "count" : 13296,
            "type" : "SCALAR"
        },
        {
            "bufferView" : 8,
            "componentType" : 5126,
            "count" : 581,
            "max" : [
                0.38456079363822937,
                2.296180009841919,
                -0.7734659910202026
            ],
            "min" : [
                -0.36471259593963623,
                -2.1044039726257324,
                -1.6253360509872437
            ],
            "type" : "VEC3"
        },
        {
            "bufferView" : 9,
            "componentType" : 5126,
            "count" : 581,
            "type" : "VEC3"
        },
        {
            "bufferView" : 10,
            "componentType" : 5126,
            "count" : 581,
            "type" : "VEC2"
        },
        {
            "bufferView" : 11,
            "componentType" : 5123,
            "count" : 1557,
            "type" : "SCALAR"
        },
        {
            "bufferView" : 12,
            "componentType" : 5126,
            "count" : 3449,
            "max" : [
                0.3850187361240387,
                2.3056960105895996,
                -0.6737070083618164
            ],
            "min" : [
                -0.3841640055179596,
                -2.1489529609680176,
                -1.6277140378952026
            ],
            "type" : "VEC3"
        },
        {
            "bufferView" : 13,
            "componentType" : 5126,
            "count" : 3449,
            "type" : "VEC3"
        },
        {
            "bufferView" : 14,
            "componentType" : 5126,
            "count" : 3449,
            "type" : "VEC2"
        },
        {
            "bufferView" : 15,
            "componentType" : 5123,
            "count" : 9729,
            "type" : "SCALAR"
        },
        {
            "bufferView" : 16,
            "componentType" : 5126,
            "count" : 740,
            "max" : [
                0.07689899951219559,
                2.327575922012329,
                -0.759630024433136
            ],
            "min" : [
                -0.07689899951219559,
                0.19019000232219696,
                -0.9128550291061401
            ],
            "type" : "VEC3"
        },
        {
            "bufferView" : 17,
            "componentType" : 5126,
            "count" : 740,
            "type" : "VEC3"
        },
        {
            "bufferView" : 18,
            "componentType" : 5126,
            "count" : 740,
            "type" : "VEC2"
        },
        {
            "bufferView" : 19,
            "componentType" : 5123,
            "count" : 3432,
            "type" : "SCALAR"
        },
        {
            "bufferView" : 20,
            "componentType" : 5126,
            "count" : 240,
            "max" : [
                0.1486939936876297,
                2.4506189823150635,
                -1.1310969591140747
            ],
            "min" : [
                -0.1486939936876297,
                -0.38718199729919434,
                -1.4597599506378174
            ],
            "type" : "VEC3"
        },
        {
            "bufferView" : 21,
            "componentType" : 5126,
            "count" : 240,
            "type" : "VEC3"
        },
        {
            "bufferView" : 22,
            "componentType" : 5126,
            "count" : 240,
            "type" : "VEC2"
        },
        {
            "bufferView" : 23,
            "componentType" : 5123,
            "count" : 708,
            "type" : "SCALAR"
        },
        {
            "bufferView" : 24,
            "componentType" : 5126,
            "count" : 85,
            "max" : [
                0.02698500081896782,
                -0.06149899959564209,
                0.0263069998472929
            ],
            "min" : [
                0,
                -0.5342509746551514,
                -0.5215839743614197
            ],
            "type" : "VEC3"
        },
        {
            "bufferView" : 25,
            "componentType" : 5126,
            "count" : 85,
            "type" : "VEC3"
        },
        {
            "bufferView" : 26,
            "componentType" : 5126,
            "count" : 85,
            "type" : "VEC2"
        },
        {
            "bufferView" : 27,
            "componentType" : 5123,
            "count" : 207,
            "type" : "SCALAR"
        },
        {
            "bufferView" : 28,
            "componentType" : 5126,
            "count" : 446,
            "max" : [
                0.02698500081896782,
                -0.06149899959564209,
                0.0263069998472929
            ],
            "min" : [
                -0.02698500081896782,
                -0.5342509746551514,
                -0.5215839743614197
            ],
            "type" : "VEC3"
        },
        {
            "bufferView" : 29,
            "componentType" : 5126,
            "count" : 446,
            "type" : "VEC3"
        },
        {
            "bufferView" : 30,
            "componentType" : 5126,
            "count" : 446,
            "type" : "VEC2"
        },
        {
            "bufferView" : 31,
            "componentType" : 5123,
            "count" : 972,
            "type" : "SCALAR"
        }
    ],
    "bufferViews" : [
        {
            "buffer" : 0,
            "byteLength" : 4440,
            "byteOffset" : 0
        },
        {
            "buffer" : 0,
            "byteLength" : 4440,
            "byteOffset" : 4440
        },
        {
            "buffer" : 0,
            "byteLength" : 2960,
            "byteOffset" : 8880
        },
        {
            "buffer" : 0,
            "byteLength" : 1644,
            "byteOffset" : 11840
        },
        {
            "buffer" : 0,
            "byteLength" : 54348,
            "byteOffset" : 13484
        },
        {
            "buffer" : 0,
            "byteLength" : 54348,
            "byteOffset" : 67832
        },
        {
            "buffer" : 0,
            "byteLength" : 36232,
            "byteOffset" : 122180
        },
        {
            "buffer" : 0,
            "byteLength" : 26592,
            "byteOffset" : 158412
        },
        {
            "buffer" : 0,
            "byteLength" : 6972,
            "byteOffset" : 185004
        },
        {
            "buffer" : 0,
            "byteLength" : 6972,
            "byteOffset" : 191976
        },
        {
            "buffer" : 0,
            "byteLength" : 4648,
            "byteOffset" : 198948
        },
        {
            "buffer" : 0,
            "byteLength" : 3114,
            "byteOffset" : 203596
        },
        {
            "buffer" : 0,
            "byteLength" : 41388,
            "byteOffset" : 206712
        },
        {
            "buffer" : 0,
            "byteLength" : 41388,
            "byteOffset" : 248100
        },
        {
            "buffer" : 0,
            "byteLength" : 27592,
            "byteOffset" : 289488
        },
        {
            "buffer" : 0,
            "byteLength" : 19458,
            "byteOffset" : 317080
        },
        {
            "buffer" : 0,
            "byteLength" : 8880,
            "byteOffset" : 336540
        },
        {
            "buffer" : 0,
            "byteLength" : 8880,
            "byteOffset" : 345420
        },
        {
            "buffer" : 0,
            "byteLength" : 5920,
            "byteOffset" : 354300
        },
        {
            "buffer" : 0,
            "byteLength" : 6864,
            "byteOffset" : 360220
        },
        {
            "buffer" : 0,
            "byteLength" : 2880,
            "byteOffset" : 367084
        },
        {
            "buffer" : 0,
            "byteLength" : 2880,
            "byteOffset" : 369964
        },
        {
            "buffer" : 0,
            "byteLength" : 1920,
            "byteOffset" : 372844
        },
        {
            "buffer" : 0,
            "byteLength" : 1416,
            "byteOffset" : 374764
        },
        {
            "buffer" : 0,
            "byteLength" : 1020,
            "byteOffset" : 376180
        },
        {
            "buffer" : 0,
            "byteLength" : 1020,
            "byteOffset" : 377200
        },
        {
            "buffer" : 0,
            "byteLength" : 680,
            "byteOffset" : 378220
        },
        {
            "buffer" : 0,
            "byteLength" : 414,
            "byteOffset" : 378900
        },
        {
            "buffer" : 0,
            "byteLength" : 5352,
            "byteOffset" : 379316
        },
        {
            "buffer" : 0,
            "byteLength" : 5352,
            "byteOffset" : 384668
        },
        {
            "buffer" : 0,
            "byteLength" : 3568,
            "byteOffset" : 390020
        },
        {
            "buffer" : 0,
            "byteLength" : 1944,
            "byteOffset" : 393588
        }
    ],
    "buffers" : [
        {
            "byteLength" : 395532,
            "uri" : "data:application/octet-stream;base64,"
        }
    ]
}
