{
    "asset" : {
        "generator" : "Khronos glTF Blender I/O v1.2.75",
        "version" : "2.0"
    },
    "scene" : 0,
    "scenes" : [
        {
            "name" : "Scene",
            "nodes" : [
                0,
                1,
                2
            ]
        }
    ],
    "nodes" : [
        {
            "mesh" : 0,
            "name" : "Duck",
            "rotation" : [
                0,
                0,
                0,
                0.49999991059303284
            ],
            "scale" : [
                0.08000035583972931,
                0.08000066131353378,
                0.07999996095895767
            ],
            "translation" : [
                0,
                -0.5299999117851257,
                0
            ]
        },
        {
            "name" : "Light",
            "rotation" : [
                0.16907575726509094,
                0.7558803558349609,
                -0.27217137813568115,
                0.570947527885437
            ],
            "translation" : [
                4.076245307922363,
                5.903861999511719,
                -1.0054539442062378
            ]
        },
        {
            "name" : "Camera",
            "rotation" : [
                0.483536034822464,
                0.33687159419059753,
                -0.20870360732078552,
                0.7804827094078064
            ],
            "translation" : [
                7.358891487121582,
                4.958309173583984,
                6.925790786743164
            ]
        }
    ],
    "materials" : [
        {
            "doubleSided" : true,
            "emissiveFactor" : [
                0,
                0,
                0
            ],
            "name" : "Material.001",
            "pbrMetallicRoughness" : {
                "baseColorTexture" : {
                    "index" : 0,
                    "texCoord" : 0
                },
                "metallicFactor" : 0,
                "roughnessFactor" : 0.5
            }
        }
    ],
    "meshes" : [
        {
            "name" : "Cube.001",
            "primitives" : [
                {
                    "attributes" : {
                        "POSITION" : 0,
                        "NORMAL" : 1,
                        "TEXCOORD_0" : 2
                    },
                    "indices" : 3,
                    "material" : 0
                }
            ]
        }
    ],
    "textures" : [
        {
            "source" : 0
        }
    ],
    "images" : [
        {
            "bufferView" : 4,
            "mimeType" : "image/jpeg",
            "name" : "MaterialColourUpdated"
        }
    ],
    "accessors" : [
        {
            "bufferView" : 0,
            "componentType" : 5126,
            "count" : 33121,
            "max" : [
                8.597343444824219,
                18.051904678344727,
                7.635275840759277
            ],
            "min" : [
                -8.835917472839355,
                0.028515338897705078,
                -7.5943403244018555
            ],
            "type" : "VEC3"
        },
        {
            "bufferView" : 1,
            "componentType" : 5126,
            "count" : 33121,
            "type" : "VEC3"
        },
        {
            "bufferView" : 2,
            "componentType" : 5126,
            "count" : 33121,
            "type" : "VEC2"
        },
        {
            "bufferView" : 3,
            "componentType" : 5123,
            "count" : 123624,
            "type" : "SCALAR"
        }
    ],
    "bufferViews" : [
        {
            "buffer" : 0,
            "byteLength" : 397452,
            "byteOffset" : 0
        },
        {
            "buffer" : 0,
            "byteLength" : 397452,
            "byteOffset" : 397452
        },
        {
            "buffer" : 0,
            "byteLength" : 264968,
            "byteOffset" : 794904
        },
        {
            "buffer" : 0,
            "byteLength" : 247248,
            "byteOffset" : 1059872
        },
        {
            "buffer" : 0,
            "byteLength" : 14310,
            "byteOffset" : 1307120
        }
    ],
    "buffers" : [
        {
            "byteLength" : 1321432,
            "uri" : "data:application/octet-stream;base64,"
        }
    ]
}
