{
    "asset" : {
        "generator" : "Khronos glTF Blender I/O v1.2.75",
        "version" : "2.0"
    },
    "scene" : 0,
    "scenes" : [
        {
            "name" : "Scene",
            "nodes" : [
                0,
                1,
                2
            ]
        }
    ],
    "nodes" : [
        {
            "mesh" : 0,
            "name" : "Cylinder",
            "scale" : [
                0.6000001430511475,
                0.6000003814697266,
                0.6000003814697266
            ],
            "translation" : [
                0,
                -0.07999999821186066,
                0
            ]
        },
        {
            "name" : "Light",
            "rotation" : [
                0.16907575726509094,
                0.7558803558349609,
                -0.27217137813568115,
                0.570947527885437
            ],
            "translation" : [
                4.076245307922363,
                5.903861999511719,
                -1.0054539442062378
            ]
        },
        {
            "name" : "Camera",
            "rotation" : [
                0.483536034822464,
                0.33687159419059753,
                -0.20870360732078552,
                0.7804827094078064
            ],
            "translation" : [
                7.358891487121582,
                4.958309173583984,
                6.925790786743164
            ]
        }
    ],
    "materials" : [
        {
            "doubleSided" : true,
            "emissiveFactor" : [
                0,
                0,
                0
            ],
            "name" : "Material.001",
            "pbrMetallicRoughness" : {
                "baseColorFactor" : [
                    1,
                    1,
                    1,
                    1
                ],
                "metallicFactor" : 0,
                "roughnessFactor" : 0
            }
        },
        {
            "doubleSided" : true,
            "emissiveFactor" : [
                0,
                0,
                0
            ],
            "name" : "Material.002",
            "pbrMetallicRoughness" : {
                "baseColorFactor" : [
                    0.8000000715255737,
                    0.5753067135810852,
                    0.019900094717741013,
                    1
                ],
                "metallicFactor" : 1,
                "roughnessFactor" : 0.22499999403953552
            }
        }
    ],
    "meshes" : [
        {
            "name" : "Cylinder.003",
            "primitives" : [
                {
                    "attributes" : {
                        "POSITION" : 0,
                        "NORMAL" : 1,
                        "TEXCOORD_0" : 2
                    },
                    "indices" : 3,
                    "material" : 0
                },
                {
                    "attributes" : {
                        "POSITION" : 4,
                        "NORMAL" : 5,
                        "TEXCOORD_0" : 6
                    },
                    "indices" : 7,
                    "material" : 1
                }
            ]
        }
    ],
    "accessors" : [
        {
            "bufferView" : 0,
            "componentType" : 5126,
            "count" : 1784,
            "max" : [
                1,
                2.0760035514831543,
                1
            ],
            "min" : [
                -1,
                -1,
                -1
            ],
            "type" : "VEC3"
        },
        {
            "bufferView" : 1,
            "componentType" : 5126,
            "count" : 1784,
            "type" : "VEC3"
        },
        {
            "bufferView" : 2,
            "componentType" : 5126,
            "count" : 1784,
            "type" : "VEC2"
        },
        {
            "bufferView" : 3,
            "componentType" : 5123,
            "count" : 6348,
            "type" : "SCALAR"
        },
        {
            "bufferView" : 4,
            "componentType" : 5126,
            "count" : 514,
            "max" : [
                0.8999999761581421,
                2.4998724460601807,
                0.8999999761581421
            ],
            "min" : [
                -0.8999999761581421,
                -0.8601897954940796,
                -0.8999999761581421
            ],
            "type" : "VEC3"
        },
        {
            "bufferView" : 5,
            "componentType" : 5126,
            "count" : 514,
            "type" : "VEC3"
        },
        {
            "bufferView" : 6,
            "componentType" : 5126,
            "count" : 514,
            "type" : "VEC2"
        },
        {
            "bufferView" : 7,
            "componentType" : 5123,
            "count" : 1260,
            "type" : "SCALAR"
        }
    ],
    "bufferViews" : [
        {
            "buffer" : 0,
            "byteLength" : 21408,
            "byteOffset" : 0
        },
        {
            "buffer" : 0,
            "byteLength" : 21408,
            "byteOffset" : 21408
        },
        {
            "buffer" : 0,
            "byteLength" : 14272,
            "byteOffset" : 42816
        },
        {
            "buffer" : 0,
            "byteLength" : 12696,
            "byteOffset" : 57088
        },
        {
            "buffer" : 0,
            "byteLength" : 6168,
            "byteOffset" : 69784
        },
        {
            "buffer" : 0,
            "byteLength" : 6168,
            "byteOffset" : 75952
        },
        {
            "buffer" : 0,
            "byteLength" : 4112,
            "byteOffset" : 82120
        },
        {
            "buffer" : 0,
            "byteLength" : 2520,
            "byteOffset" : 86232
        }
    ],
    "buffers" : [
        {
            "byteLength" : 88752,
            "uri" : "data:application/octet-stream;base64,"
        }
    ]
}
